<?xml version="1.0" standalone="no"?>
<!DOCTYPE svg PUBLIC "-//W3C//DTD SVG 20010904//EN"
 "http://www.w3.org/TR/2001/REC-SVG-20010904/DTD/svg10.dtd">
<svg version="1.0" xmlns="http://www.w3.org/2000/svg"
 width="503.000000pt" height="294.000000pt" viewBox="0 0 503.000000 294.000000"
 preserveAspectRatio="xMidYMid meet">

<g transform="translate(0.000000,294.000000) scale(0.100000,-0.100000)"
fill="#000000" stroke="none">
<path d="M0 1470 l0 -1470 2515 0 2515 0 0 1470 0 1470 -2515 0 -2515 0 0
-1470z m2762 838 c37 -31 299 -341 295 -352 -2 -6 -14 -12 -28 -13 -19 -2 -43
19 -119 107 -52 60 -115 132 -140 159 l-45 48 -205 -11 c-113 -7 -211 -10
-217 -8 -18 6 -16 41 2 48 8 4 106 12 217 19 112 7 208 13 214 14 5 0 17 -5
26 -11z m-18 -156 c18 -20 65 -73 105 -117 39 -44 74 -89 77 -100 5 -19 -47
-158 -67 -179 -6 -6 -13 -6 -21 2 -9 9 -5 29 20 88 37 88 47 63 -87 216 l-84
97 -47 -6 c-36 -4 -54 -1 -76 13 l-28 19 64 6 c90 8 106 4 144 -39z m18 -215
l40 -47 -19 -45 c-10 -25 -21 -45 -25 -45 -12 0 -10 13 7 53 l15 35 -48 54
c-56 64 -61 68 -79 61 -7 -3 -21 -2 -30 3 -14 6 -10 9 17 14 40 7 56 -4 122
-83z m-1174 -197 c21 -30 53 -81 71 -112 17 -31 45 -68 61 -82 32 -26 317
-126 363 -126 29 0 35 11 15 27 -7 6 -76 34 -153 63 -151 56 -182 74 -164 97
17 19 43 16 165 -18 107 -31 110 -31 206 -19 76 9 105 9 135 0 51 -17 172 -91
178 -110 5 -15 -38 -186 -49 -198 -9 -9 -499 27 -538 39 -18 6 -82 43 -141 83
l-108 71 -79 157 c-44 87 -80 169 -80 182 0 57 61 29 118 -54z m1919 24 c3 -9
-27 -82 -73 -175 l-78 -159 -106 -70 c-59 -39 -122 -75 -141 -80 -29 -8 -389
-30 -484 -30 -31 0 -31 0 -54 95 -13 53 -21 101 -18 108 6 17 134 93 172 103
15 4 71 1 124 -6 92 -12 100 -11 198 14 119 30 151 32 160 10 9 -24 -10 -35
-159 -89 -132 -47 -158 -59 -158 -76 0 -18 51 -8 197 37 171 53 188 65 257
184 73 125 144 184 163 134z"/>
</g>
</svg>
